<svg width="33" height="38" viewBox="0 0 33 38" fill="none" xmlns="http://www.w3.org/2000/svg">
<path d="M4.13333 11.8333L1 8.7M28.3333 11.8333L31.4667 8.7M16.5333 5.5V1.5M6.53333 30.1667V20.1667C6.52607 17.5238 7.56815 14.9862 9.43067 13.1111C11.2932 11.2361 13.8238 10.1771 16.4667 10.1667C19.1024 10.1996 21.6199 11.2659 23.4776 13.136C25.3353 15.0062 26.3846 17.5308 26.4 20.1667V30.1667M6.33333 30.1667H26.6667C27.5153 30.1669 28.3291 30.5041 28.9292 31.1041C29.5293 31.7042 29.8665 32.518 29.8667 33.3667C29.8665 34.2153 29.5293 35.0292 28.9292 35.6292C28.3291 36.2293 27.5153 36.5665 26.6667 36.5667H6.33333C5.48469 36.5665 4.67086 36.2293 4.07079 35.6292C3.47071 35.0292 3.13351 34.2153 3.13333 33.3667C3.15605 32.5252 3.50049 31.7244 4.09575 31.1291C4.69101 30.5338 5.49181 30.1894 6.33333 30.1667Z" stroke="black" stroke-width="2" stroke-linecap="round" stroke-linejoin="round"/>
</svg>
