<svg width="49" height="49" viewBox="0 0 49 49" fill="none" xmlns="http://www.w3.org/2000/svg">
<path d="M18.3747 44.9173H30.6247C40.833 44.9173 44.9163 40.834 44.9163 30.6257V18.3757C44.9163 8.16732 40.833 4.08398 30.6247 4.08398H18.3747C8.16634 4.08398 4.08301 8.16732 4.08301 18.3757V30.6257C4.08301 40.834 8.16634 44.9173 18.3747 44.9173Z" stroke="#1E3A2B" stroke-width="2.5" stroke-linecap="round" stroke-linejoin="round"/>
<path d="M31.6455 19.9062C33.3369 19.9062 34.708 18.5351 34.708 16.8438C34.708 15.1524 33.3369 13.7812 31.6455 13.7812C29.9541 13.7812 28.583 15.1524 28.583 16.8438C28.583 18.5351 29.9541 19.9062 31.6455 19.9062Z" stroke="#1E3A2B" stroke-width="2.5" stroke-miterlimit="10" stroke-linecap="round" stroke-linejoin="round"/>
<path d="M17.3545 19.9062C19.0459 19.9062 20.417 18.5351 20.417 16.8438C20.417 15.1524 19.0459 13.7812 17.3545 13.7812C15.6631 13.7812 14.292 15.1524 14.292 16.8438C14.292 18.5351 15.6631 19.9062 17.3545 19.9062Z" stroke="#1E3A2B" stroke-width="2.5" stroke-miterlimit="10" stroke-linecap="round" stroke-linejoin="round"/>
<path d="M17.15 27.1543H31.85C32.8708 27.1543 33.6875 27.971 33.6875 28.9918C33.6875 34.0755 29.5838 38.1793 24.5 38.1793C19.4163 38.1793 15.3125 34.0755 15.3125 28.9918C15.3125 27.971 16.1292 27.1543 17.15 27.1543Z" stroke="#1E3A2B" stroke-width="2.5" stroke-miterlimit="10" stroke-linecap="round" stroke-linejoin="round"/>
</svg>
