<svg width="32" height="43" viewBox="0 0 32 43" fill="none" xmlns="http://www.w3.org/2000/svg">
<path d="M7.56739 34.0164V31.6847L0.75 37.0228L7.53749 42.4976C7.56169 41.7631 7.5859 41.0293 7.61011 40.2962C8.69722 40.3197 10.2798 40.3474 12.1956 40.3453C13.2229 40.3453 14.2545 40.3325 14.6945 40.3239C18.3723 40.2513 23.5088 40.1467 27.272 36.9929C28.0178 36.371 28.6778 35.653 29.2348 34.8577C31.7358 31.2021 32.3787 25.1081 28.9593 21.0596C26.5459 18.2005 23.1436 17.5877 21.939 17.4297L14.1904 22.7678C14.808 22.7104 15.4284 22.6869 16.0485 22.6974C18.2783 22.7315 21.5674 22.7849 23.4469 24.9906C24.1392 25.7768 24.5621 26.7636 24.6536 27.807C24.7817 29.7288 23.5707 31.1743 23.3187 31.4711C21.1039 34.0783 17.0844 34.0996 11.3584 34.1295C9.73307 34.1381 8.40889 34.0719 7.56739 34.0164Z" fill="#5CAD64"/>
<path d="M0.832031 33.9659V12.0197C0.842037 10.5064 1.1725 9.01243 1.80167 7.63603C3.46331 4.04239 6.70114 2.51141 8.01037 1.89646C9.82336 1.04515 11.7901 0.570099 13.7919 0.5C16.4879 0.516964 19.1039 1.41702 21.2394 3.06231C23.2007 4.55825 24.6323 6.64191 25.3251 9.009C25.843 10.8422 25.8784 12.7781 25.4276 14.629C25.0982 15.9086 24.5333 17.1157 23.7617 18.1885C20.447 22.7515 13.888 23.5031 11.4511 22.3181C10.7344 21.9746 10.1224 21.4461 9.67841 20.7871C9.29066 20.1173 9.11985 19.3438 9.18945 18.5731C9.25906 17.8023 9.56565 17.072 10.0671 16.4824C11.2503 15.1393 12.9782 15.2632 13.1704 15.2803L13.2088 17.2959L20.4256 11.8275L13.0999 6.20754L13.1384 8.06949C12.7112 8.12073 9.47765 8.56273 8.05522 11.251C7.68444 11.9592 7.47236 12.7395 7.43371 13.5379L7.39527 28.4334L0.832031 33.9659Z" fill="#3D5A80"/>
</svg>
