<svg width="81" height="28" viewBox="0 0 81 28" fill="none" xmlns="http://www.w3.org/2000/svg">
<path d="M4.0337 21.0101V19.8443L0.625 22.5134L4.01874 25.2508C4.03085 24.8835 4.04295 24.5166 4.05505 24.15C4.59861 24.1618 5.38991 24.1757 6.34781 24.1746C6.86146 24.1746 7.37725 24.1682 7.59723 24.1639C9.43614 24.1276 12.0044 24.0753 13.886 22.4984C14.2589 22.1874 14.5889 21.8284 14.8674 21.4308C16.1179 19.603 16.4393 16.556 14.7297 14.5318C13.5229 13.1022 11.8218 12.7958 11.2195 12.7168L7.34521 15.3859C7.65402 15.3572 7.96418 15.3454 8.27427 15.3506C9.38915 15.3677 11.0337 15.3944 11.9734 16.4973C12.3196 16.8903 12.531 17.3838 12.5768 17.9055C12.6409 18.8663 12.0354 19.5891 11.9094 19.7375C10.802 21.0411 8.7922 21.0518 5.92919 21.0667C5.11653 21.071 4.45444 21.0379 4.0337 21.0101Z" fill="white"/>
<path d="M0.666016 20.9829V10.0099C0.671019 9.25322 0.836252 8.50621 1.15084 7.81802C1.98165 6.0212 3.60057 5.25571 4.25519 4.94823C5.16168 4.52257 6.14507 4.28505 7.14595 4.25C8.49393 4.25848 9.80195 4.70851 10.8697 5.53115C11.8503 6.27913 12.5661 7.32096 12.9125 8.5045C13.1715 9.4211 13.1892 10.3891 12.9638 11.3145C12.7991 11.9543 12.5167 12.5579 12.1309 13.0942C10.4735 15.3758 7.19401 15.7516 5.97555 15.159C5.61721 14.9873 5.31122 14.723 5.08921 14.3935C4.89533 14.0586 4.80993 13.6719 4.84473 13.2865C4.87953 12.9011 5.03282 12.536 5.28356 12.2412C5.87517 11.5697 6.73909 11.6316 6.8352 11.6401L6.85442 12.648L10.4628 9.91377L6.79996 7.10377L6.81918 8.03474C6.6056 8.06037 4.98882 8.28137 4.27761 9.62551C4.09222 9.97958 3.98618 10.3698 3.96686 10.7689L3.94763 18.2167L0.666016 20.9829Z" fill="white"/>
<path d="M25.531 22.7393C24.2695 22.7393 23.153 22.471 22.1815 21.9345C21.2245 21.398 20.4705 20.6585 19.9195 19.716C19.383 18.759 19.1148 17.6715 19.1148 16.4535V7.1445H22.5513V16.6492C22.5513 17.2582 22.6818 17.7875 22.9428 18.237C23.2038 18.6865 23.559 19.0345 24.0085 19.281C24.4725 19.513 24.98 19.629 25.531 19.629C26.111 19.629 26.6185 19.513 27.0535 19.281C27.4885 19.0345 27.8293 18.6937 28.0758 18.2587C28.3368 17.8092 28.4673 17.28 28.4673 16.671V7.1445H31.9038V16.4752C31.9038 17.6932 31.6355 18.7735 31.099 19.716C30.5625 20.6585 29.8158 21.398 28.8587 21.9345C27.9018 22.471 26.7925 22.7393 25.531 22.7393ZM36.9312 22.5V19.4985H40.7375C41.6655 19.4985 42.4775 19.3172 43.1735 18.9547C43.8695 18.5777 44.406 18.034 44.783 17.3235C45.16 16.613 45.3485 15.772 45.3485 14.8005C45.3485 13.829 45.1527 12.9952 44.7612 12.2992C44.3842 11.6032 43.8477 11.0667 43.1517 10.6897C42.4702 10.3127 41.6655 10.1242 40.7375 10.1242H36.8225V7.1445H40.781C41.941 7.1445 43.0067 7.333 43.9782 7.71C44.9642 8.0725 45.8197 8.60175 46.5447 9.29775C47.2842 9.97925 47.8497 10.7912 48.2412 11.7337C48.6472 12.6617 48.8502 13.6912 48.8502 14.8222C48.8502 15.9387 48.6472 16.9682 48.2412 17.9107C47.8497 18.8532 47.2915 19.6652 46.5665 20.3467C45.8415 21.0282 44.986 21.5575 44 21.9345C43.0285 22.3115 41.97 22.5 40.8245 22.5H36.9312ZM34.6257 22.5V7.1445H38.0405V22.5H34.6257ZM53.3287 22.5V19.4985H57.1349C58.0629 19.4985 58.8749 19.3172 59.5709 18.9547C60.2669 18.5777 60.8034 18.034 61.1804 17.3235C61.5574 16.613 61.7459 15.772 61.7459 14.8005C61.7459 13.829 61.5502 12.9952 61.1587 12.2992C60.7817 11.6032 60.2452 11.0667 59.5492 10.6897C58.8677 10.3127 58.0629 10.1242 57.1349 10.1242H53.2199V7.1445H57.1784C58.3384 7.1445 59.4042 7.333 60.3757 7.71C61.3617 8.0725 62.2172 8.60175 62.9422 9.29775C63.6817 9.97925 64.2472 10.7912 64.6387 11.7337C65.0447 12.6617 65.2477 13.6912 65.2477 14.8222C65.2477 15.9387 65.0447 16.9682 64.6387 17.9107C64.2472 18.8532 63.6889 19.6652 62.9639 20.3467C62.2389 21.0282 61.3834 21.5575 60.3974 21.9345C59.4259 22.3115 58.3674 22.5 57.2219 22.5H53.3287ZM51.0232 22.5V7.1445H54.4379V22.5H51.0232ZM72.1404 16.7797L66.2244 7.1445H70.1829L74.7287 14.931H72.1839L76.7297 7.1445H80.6012L74.6417 16.7797H72.1404ZM71.7272 22.5V15.2137H75.1419V22.5H71.7272Z" fill="white"/>
</svg>
