<svg width="48" height="48" viewBox="0 0 48 48" fill="none" xmlns="http://www.w3.org/2000/svg">
<g style="mix-blend-mode:luminosity">
<path d="M17.9813 41.8171L32.0513 41.8359L46.9651 35.7609C46.9651 35.7609 47.0626 31.0396 46.7738 26.1534C46.4851 21.2671 45.1313 13.8384 45.1313 13.8384C45.1313 13.8384 45.2138 12.4809 45.0488 11.7459C44.8913 11.0484 44.4713 10.4821 43.3051 10.4146C42.2363 10.3509 18.1351 10.4146 17.4788 10.4971C16.8226 10.5796 12.8663 15.3609 12.8663 15.3609C12.8663 15.3609 7.28633 24.5934 7.12508 24.7996C6.96008 25.0059 3.31508 27.4621 2.73383 28.2084C2.12633 28.9884 2.16758 29.6259 2.16758 29.6259L2.19008 35.9371L17.9813 41.8171Z" fill="#E1E1E1"/>
<path d="M46.9692 35.7572C46.9692 35.7572 38.8242 35.6822 37.1405 36.0347C35.4567 36.3872 34.3242 37.3922 33.3717 38.9259C32.4155 40.4597 32.0405 41.8434 32.0405 41.8434C32.0405 41.8434 45.338 41.8172 45.788 41.8434C46.238 41.8697 46.8455 41.1647 46.8942 40.2084C46.9467 39.2522 46.9692 35.7572 46.9692 35.7572ZM17.9892 41.8134C17.9892 41.8134 16.8342 39.0497 15.6267 37.8159C14.4192 36.5822 12.6605 35.7534 10.5492 35.6784C8.43795 35.6034 2.19795 35.5547 2.19795 35.5547C2.19795 35.5547 0.795455 36.7097 0.694205 38.3409C0.592955 39.9759 0.694205 41.5322 2.00295 41.6334C3.3117 41.7347 17.9892 41.8134 17.9892 41.8134Z" fill="#516C73"/>
<path d="M5.80538 42.1692C5.83538 43.943 7.24913 46.5005 10.3316 46.5192C13.4141 46.538 15.0116 44.1792 14.9141 41.7605C14.8166 39.3005 12.9041 37.568 10.1554 37.643C7.57913 37.718 5.76413 39.713 5.80538 42.1692Z" fill="#4E433D"/>
<path d="M8.00613 42.063C8.02113 43.0005 8.76363 44.3468 10.3836 44.358C12.0036 44.3693 12.7911 43.1955 12.7386 41.9205C12.6861 40.623 11.6511 39.6593 10.2899 39.678C8.93988 39.6968 7.98738 40.7693 8.00613 42.063Z" fill="#C8C8C8"/>
<path d="M35.2242 41.9583C35.2542 43.732 36.668 46.2895 39.7505 46.3083C42.833 46.327 44.4305 43.9683 44.333 41.5495C44.2355 39.0895 42.323 37.357 39.5742 37.432C37.0017 37.5033 35.1867 39.4983 35.2242 41.9583Z" fill="#4E433D"/>
<path d="M37.4291 41.854C37.4441 42.7915 38.1866 44.1378 39.8066 44.149C41.4266 44.1603 42.2141 42.9865 42.1616 41.7115C42.1091 40.414 41.0741 39.4503 39.7129 39.469C38.3629 39.4878 37.4066 40.5565 37.4291 41.854Z" fill="#C8C8C8"/>
<path d="M2.18234 34.0733L46.9836 34.2495C46.9836 34.2495 46.9911 33.4545 46.9911 32.4045C46.9911 31.3695 46.9536 30.5933 46.9536 30.5933L2.15234 30.582L2.18234 34.0733Z" fill="#D70617"/>
<path d="M2.16026 29.6145C2.16026 29.6145 6.72401 29.5957 6.97151 29.5957C7.21901 29.5957 7.41401 29.787 7.41401 30.1132C7.41401 30.4395 7.54901 31.647 6.57026 32.547C6.15026 32.9332 5.24276 33.0157 4.38401 33.027C3.09776 33.042 2.27651 33.0495 2.17151 33.0495C2.17151 33.0495 2.11526 30.4957 2.12276 30.1845C2.13776 29.8207 2.16026 29.6145 2.16026 29.6145Z" fill="#FFE365"/>
<path d="M12.7686 15.5251L45.4273 15.5176L45.2961 14.6701C45.2211 14.1863 45.1348 13.8413 45.1348 13.8413L17.4486 13.8751L17.4823 10.4926C17.4823 10.4926 16.8111 10.4138 16.4586 10.7438C15.9598 11.2126 15.0636 12.1538 14.1973 13.2901C13.5186 14.1788 12.7686 15.5251 12.7686 15.5251Z" fill="#C9C9C9"/>
<path d="M13.9953 11.9474C13.1328 12.9111 13.3765 14.4936 13.3765 14.4936C13.3765 14.4936 16.1815 14.5836 16.279 14.4261C16.3765 14.2724 16.3353 10.8786 16.3353 10.8786C16.3353 10.8786 15.1615 10.6386 13.9953 11.9474Z" fill="#FA2B23"/>
<path d="M17.4824 10.5032C17.6362 10.4845 26.3999 10.4282 26.3999 10.4282C26.3999 10.4282 26.3999 8.92446 26.3849 8.38071C26.3662 7.64196 25.7812 7.07946 24.7162 7.04196C23.9699 7.01571 19.7249 6.98196 19.0462 7.02321C18.3674 7.06071 17.5912 7.62696 17.5499 8.47821C17.5087 9.32946 17.4824 10.5032 17.4824 10.5032Z" fill="#DD0F26"/>
<path d="M20.7829 8.69961L21.2779 9.77961L20.0929 9.76086C20.0929 9.76086 19.1816 8.88711 19.1816 8.69211C19.1816 8.49711 20.1904 7.73961 20.1904 7.73961L21.4391 7.72461L20.7829 8.69961ZM22.9016 8.72211L22.4629 9.80961L23.4491 9.80211C23.4491 9.80211 24.4616 8.93211 24.4729 8.76336C24.4879 8.51961 23.4566 7.72836 23.4566 7.72836L22.3504 7.72461L22.9016 8.72211Z" fill="#FF5B5E"/>
<path d="M34.0424 16.7578C33.9636 17.3878 33.9111 22.8591 33.9111 22.8591L33.9374 28.4616L36.7386 28.4091L36.8961 22.6753L36.7911 16.8103L34.0424 16.7578Z" fill="#1E86FE"/>
<path d="M29.9141 24.4655L34.6241 21.2443L39.4953 18.1543L41.0141 20.4043L36.1953 23.7568L31.3278 26.768L29.9141 24.4655Z" fill="#1E86FE"/>
<path d="M31.1704 18.2578L29.7041 20.4553L34.3616 23.8866L39.1804 26.8716L40.7254 24.6703L35.8541 21.2428L31.1704 18.2578Z" fill="#1E86FE"/>
<path d="M14.2842 17.1607C13.763 17.2094 13.2642 17.3707 12.8705 17.9707C12.4767 18.5744 9.07546 24.7244 8.73421 25.3019C8.55046 25.6132 8.33296 26.0969 8.41546 26.4757C8.48671 26.7944 8.81671 27.0344 9.17671 27.0569C9.96046 27.1094 19.9617 27.0307 20.513 27.0307C21.0642 27.0307 21.533 26.5582 21.5592 25.7219C21.5855 24.8857 21.6267 18.8069 21.5592 18.1544C21.4805 17.3969 20.9817 17.1607 20.3555 17.1344C19.778 17.1082 14.8317 17.1082 14.2842 17.1607Z" fill="#557077"/>
<path d="M14.8877 18.7653C14.374 18.7728 13.9765 18.9416 13.5827 19.5978C13.354 19.9803 10.624 24.9378 10.5452 25.1741C10.4665 25.4103 10.6502 25.6203 11.044 25.6203C11.4377 25.6203 19.0015 25.5678 19.474 25.5678C19.9465 25.5678 20.1827 25.2266 20.2052 24.5216C20.2315 23.8128 20.2052 19.8866 20.2052 19.4703C20.2052 19.0541 19.9952 18.7616 19.4477 18.7616C18.9002 18.7578 15.3602 18.7541 14.8877 18.7653Z" fill="#AFE3FB"/>
</g>
</svg>
