<svg width="32" height="43" viewBox="0 0 32 43" fill="none" xmlns="http://www.w3.org/2000/svg">
<path d="M7.31739 34.0164V31.6847L0.5 37.0228L7.28749 42.4976C7.31169 41.7631 7.3359 41.0293 7.36011 40.2962C8.44722 40.3197 10.0298 40.3474 11.9456 40.3453C12.9729 40.3453 14.0045 40.3325 14.4445 40.3239C18.1223 40.2513 23.2588 40.1467 27.022 36.9929C27.7678 36.371 28.4278 35.653 28.9848 34.8577C31.4858 31.2021 32.1287 25.1081 28.7093 21.0596C26.2959 18.2005 22.8936 17.5877 21.689 17.4297L13.9404 22.7678C14.558 22.7104 15.1784 22.6869 15.7985 22.6974C18.0283 22.7315 21.3174 22.7849 23.1969 24.9906C23.8892 25.7768 24.3121 26.7636 24.4036 27.807C24.5317 29.7288 23.3207 31.1743 23.0687 31.4711C20.8539 34.0783 16.8344 34.0996 11.1084 34.1295C9.48307 34.1381 8.15889 34.0719 7.31739 34.0164Z" fill="#5CAD64"/>
<path d="M0.582031 33.9659V12.0197C0.592037 10.5064 0.922504 9.01243 1.55167 7.63603C3.21331 4.04239 6.45114 2.51141 7.76037 1.89646C9.57336 1.04515 11.5401 0.570099 13.5419 0.5C16.2379 0.516964 18.8539 1.41702 20.9894 3.06231C22.9507 4.55825 24.3823 6.64191 25.0751 9.009C25.593 10.8422 25.6284 12.7781 25.1776 14.629C24.8482 15.9086 24.2833 17.1157 23.5117 18.1885C20.197 22.7515 13.638 23.5031 11.2011 22.3181C10.4844 21.9746 9.87244 21.4461 9.42841 20.7871C9.04066 20.1173 8.86985 19.3438 8.93945 18.5731C9.00906 17.8023 9.31565 17.072 9.81712 16.4824C11.0003 15.1393 12.7282 15.2632 12.9204 15.2803L12.9588 17.2959L20.1756 11.8275L12.8499 6.20754L12.8884 8.06949C12.4612 8.12073 9.22765 8.56273 7.80522 11.251C7.43444 11.9592 7.22236 12.7395 7.18371 13.5379L7.14527 28.4334L0.582031 33.9659Z" fill="#3D5A80"/>
</svg>
